<mxfile host="app.diagrams.net" modified="2024-02-16T13:49:36.699Z" agent="Mozilla/5.0 (Windows NT 10.0; Win64; x64) AppleWebKit/537.36 (KHTML, like Gecko) Chrome/121.0.0.0 Safari/537.36" version="23.1.4" etag="eJBM7wHLql9a1OHYxhgB" type="github">
  <diagram name="페이지-1" id="znIH17bBNBUMtTM8fHJ4">
    <mxGraphModel>
      <root>
        <mxCell id="0" />
        <mxCell id="1" parent="0" />
      </root>
    </mxGraphModel>
  </diagram>
</mxfile>
